<?xml version="1.0" encoding="UTF-8" standalone="no"?>
<svg
   xmlns:dc="http://purl.org/dc/elements/1.1/"
   xmlns:cc="http://creativecommons.org/ns#"
   xmlns:rdf="http://www.w3.org/1999/02/22-rdf-syntax-ns#"
   xmlns:svg="http://www.w3.org/2000/svg"
   xmlns="http://www.w3.org/2000/svg"
   xmlns:sodipodi="http://sodipodi.sourceforge.net/DTD/sodipodi-0.dtd"
   xmlns:inkscape="http://www.inkscape.org/namespaces/inkscape"
   version="1.1"
   id="svg10"
   xml:space="preserve"
   width="554.43597"
   height="119.896"
   viewBox="0 0 554.43597 119.896"
   sodipodi:docname="jaykkakappale-figure1.svg"
   inkscape:version="1.0.2-2 (e86c870879, 2021-01-15)"><metadata
     id="metadata16"><rdf:RDF><cc:Work
         rdf:about=""><dc:format>image/svg+xml</dc:format><dc:type
           rdf:resource="http://purl.org/dc/dcmitype/StillImage" /><dc:title></dc:title></cc:Work></rdf:RDF></metadata><defs
     id="defs14" /><sodipodi:namedview
     pagecolor="#ffffff"
     bordercolor="#666666"
     borderopacity="1"
     objecttolerance="10"
     gridtolerance="10"
     guidetolerance="10"
     inkscape:pageopacity="0"
     inkscape:pageshadow="2"
     inkscape:window-width="1790"
     inkscape:window-height="914"
     id="namedview12"
     showgrid="false"
     inkscape:zoom="1.4681587"
     inkscape:cx="277.21799"
     inkscape:cy="59.948002"
     inkscape:window-x="0"
     inkscape:window-y="0"
     inkscape:window-maximized="0"
     inkscape:current-layer="g18" /><g
     id="g18"
     inkscape:groupmode="layer"
     inkscape:label="jaykkakappale-figure1"
     transform="matrix(1.3333333,0,0,-1.3333333,0,119.896)"><g
       id="g20"
       transform="translate(46.414,46.03)"><g
         id="g22"><g
           id="g24"><g
             id="g26"><path
               d="M 28.3468,0 C 28.3468,15.6557 15.6557,28.3468 0,28.3468 -15.6557,28.3468 -28.3468,15.6557 -28.3468,0 c 0,-15.6557 12.6911,-28.3468 28.3468,-28.3468 15.6557,0 28.3468,12.6911 28.3468,28.3468 z"
               style="fill:#ffffff;fill-opacity:1;fill-rule:nonzero;stroke:#000000;stroke-width:0.79701;stroke-linecap:butt;stroke-linejoin:miter;stroke-miterlimit:10;stroke-dasharray:none;stroke-opacity:1"
               id="path28" /></g><path
             d="m 2.83484,0 c 0,1.56564 -1.2692,2.83484 -2.83484,2.83484 -1.56564,0 -2.83484,-1.2692 -2.83484,-2.83484 0,-1.56564 1.2692,-2.83484 2.83484,-2.83484 1.56564,0 2.83484,1.2692 2.83484,2.83484 z"
             style="fill:#000000;fill-opacity:1;fill-rule:nonzero;stroke:#000000;stroke-width:0.3985;stroke-linecap:butt;stroke-linejoin:miter;stroke-miterlimit:10;stroke-dasharray:none;stroke-opacity:1"
             id="path30" /><g
             id="g32"><path
               d="m 12.75595,34.01608 c -11.41844,4.15598 -24.19157,1.90331 -32.62198,-5.1708"
               style="fill:none;stroke:#000000;stroke-width:0.79701;stroke-linecap:butt;stroke-linejoin:miter;stroke-miterlimit:10;stroke-dasharray:none;stroke-opacity:1"
               id="path34" /><g
               id="g36"
               transform="matrix(-0.766,-0.64279,0.64279,-0.766,-19.86603,28.84529)"><g
                 id="g38"><path
                   d="M -5.08694,3.13824 0.34868,0 -5.08694,-3.13824 Z"
                   style="fill:#000000;fill-opacity:1;fill-rule:nonzero;stroke:#000000;stroke-width:0.79701;stroke-linecap:butt;stroke-linejoin:miter;stroke-miterlimit:10;stroke-dasharray:none;stroke-opacity:1"
                   id="path40" /></g></g></g><g
             id="g42"><g
               id="g44"
               transform="translate(-42.513,31.028)"><g
                 id="g46"><g
                   id="g48"
                   transform="translate(-3.901,-77.058)"><text
                     transform="matrix(1,0,0,-1,3.901,77.058)"
                     style="font-variant:normal;font-weight:normal;font-size:11.9552px;font-family:Arial;-inkscape-font-specification:Arial;writing-mode:lr-tb;fill:#000000;fill-opacity:1;fill-rule:nonzero;stroke:none"
                     id="text52"><tspan
                       x="0 5.2285156 11.765361"
                       y="0"
                       sodipodi:role="line"
                       id="tspan50">(a)</tspan></text><g
                     id="g54"
                     transform="translate(3.901,77.058)" /></g></g><g
                 id="g56"
                 transform="translate(42.513,-31.028)" /></g></g><g
             id="g58"><g
               id="g60"
               transform="translate(-25.355,-39.805)"><g
                 id="g62"><g
                   id="g64"
                   transform="translate(-21.059,-6.225)"><text
                     transform="matrix(1,0,0,-1,21.059,6.225)"
                     style="font-variant:normal;font-weight:normal;font-size:11.9552px;font-family:Arial;-inkscape-font-specification:Arial;writing-mode:lr-tb;fill:#000000;fill-opacity:1;fill-rule:nonzero;stroke:none"
                     id="text68"><tspan
                       x="0 8.7730083 14.62448 21.449306 26.650217 33.152252 37.703796 44.205833"
                       y="0"
                       sodipodi:role="line"
                       id="tspan66">Nopeutuu</tspan></text><g
                     id="g70"
                     transform="translate(21.059,6.225)" /></g></g><g
                 id="g72"
                 transform="translate(25.355,39.805)" /></g></g><g
             id="g74"><g
               id="g76"><path
                 d="m 141.73409,0 c 0,15.6557 -12.69111,28.3468 -28.34681,28.3468 C 97.73157,28.3468 85.04047,15.6557 85.04047,0 c 0,-15.6557 12.6911,-28.3468 28.34681,-28.3468 15.6557,0 28.34681,12.6911 28.34681,28.3468 z"
                 style="fill:#ffffff;fill-opacity:1;fill-rule:nonzero;stroke:#000000;stroke-width:0.79701;stroke-linecap:butt;stroke-linejoin:miter;stroke-miterlimit:10;stroke-dasharray:none;stroke-opacity:1"
                 id="path78" /></g><path
               d="m 116.22212,0 c 0,1.56564 -1.26919,2.83484 -2.83484,2.83484 -1.56566,0 -2.83485,-1.2692 -2.83485,-2.83484 0,-1.56564 1.26919,-2.83484 2.83485,-2.83484 1.56565,0 2.83484,1.2692 2.83484,2.83484 z"
               style="fill:#000000;fill-opacity:1;fill-rule:nonzero;stroke:#000000;stroke-width:0.3985;stroke-linecap:butt;stroke-linejoin:miter;stroke-miterlimit:10;stroke-dasharray:none;stroke-opacity:1"
               id="path80" /><g
               id="g82"><path
                 d="m 100.63132,34.01608 c 11.41844,4.15598 24.19158,1.90331 32.62199,-5.1708"
                 style="fill:none;stroke:#000000;stroke-width:0.79701;stroke-linecap:butt;stroke-linejoin:miter;stroke-miterlimit:10;stroke-dasharray:none;stroke-opacity:1"
                 id="path84" /><g
                 id="g86"
                 transform="matrix(0.766,-0.64279,0.64279,0.766,133.25331,28.84529)"><g
                   id="g88"><path
                     d="M -5.08694,3.13824 0.34868,0 -5.08694,-3.13824 Z"
                     style="fill:#000000;fill-opacity:1;fill-rule:nonzero;stroke:#000000;stroke-width:0.79701;stroke-linecap:butt;stroke-linejoin:miter;stroke-miterlimit:10;stroke-dasharray:none;stroke-opacity:1"
                     id="path90" /></g></g></g><g
               id="g92"><g
                 id="g94"
                 transform="translate(70.406,31.028)"><g
                   id="g96"><g
                     id="g98"
                     transform="translate(-116.82,-77.058)"><text
                       transform="matrix(1,0,0,-1,116.82,77.058)"
                       style="font-variant:normal;font-weight:normal;font-size:11.9552px;font-family:Arial;-inkscape-font-specification:Arial;writing-mode:lr-tb;fill:#000000;fill-opacity:1;fill-rule:nonzero;stroke:none"
                       id="text102"><tspan
                         x="0 5.2285156 12.699196"
                         y="0"
                         sodipodi:role="line"
                         id="tspan100">(b)</tspan></text><g
                       id="g104"
                       transform="translate(116.82,77.058)" /></g></g><g
                   id="g106"
                   transform="translate(-70.406,-31.028)" /></g></g><g
               id="g108"><g
                 id="g110"
                 transform="translate(90.111,-40.967)"><g
                   id="g112"><g
                     id="g114"
                     transform="translate(-136.525,-5.063)"><text
                       transform="matrix(1,0,0,-1,136.525,5.063)"
                       style="font-variant:normal;font-weight:normal;font-size:11.9552px;font-family:Arial;-inkscape-font-specification:Arial;writing-mode:lr-tb;fill:#000000;fill-opacity:1;fill-rule:nonzero;stroke:none"
                       id="text118"><tspan
                         x="0 8.7730083 12.023426 18.525463 24.376934 28.993298 33.544842 40.046879"
                         y="0"
                         sodipodi:role="line"
                         id="tspan116">Hidastuu</tspan></text><g
                       id="g120"
                       transform="translate(136.525,5.063)" /></g></g><g
                   id="g122"
                   transform="translate(-90.111,40.967)" /></g></g></g><g
             id="g124"><g
               id="g126"><path
                 d="m 255.12137,0 c 0,15.6557 -12.6911,28.3468 -28.3468,28.3468 -15.65572,0 -28.34682,-12.6911 -28.34682,-28.3468 0,-15.6557 12.6911,-28.3468 28.34682,-28.3468 15.6557,0 28.3468,12.6911 28.3468,28.3468 z"
                 style="fill:#ffffff;fill-opacity:1;fill-rule:nonzero;stroke:#000000;stroke-width:0.79701;stroke-linecap:butt;stroke-linejoin:miter;stroke-miterlimit:10;stroke-dasharray:none;stroke-opacity:1"
                 id="path128" /></g><path
               d="m 229.6094,0 c 0,1.56564 -1.26919,2.83484 -2.83483,2.83484 -1.56566,0 -2.83486,-1.2692 -2.83486,-2.83484 0,-1.56564 1.2692,-2.83484 2.83486,-2.83484 1.56564,0 2.83483,1.2692 2.83483,2.83484 z"
               style="fill:#000000;fill-opacity:1;fill-rule:nonzero;stroke:#000000;stroke-width:0.3985;stroke-linecap:butt;stroke-linejoin:miter;stroke-miterlimit:10;stroke-dasharray:none;stroke-opacity:1"
               id="path130" /><g
               id="g132"><path
                 d="m 239.53053,34.01608 c -11.41845,4.15598 -24.1916,1.90331 -32.62201,-5.1708"
                 style="fill:none;stroke:#000000;stroke-width:0.79701;stroke-linecap:butt;stroke-linejoin:miter;stroke-miterlimit:10;stroke-dasharray:none;stroke-opacity:1"
                 id="path134" /><g
                 id="g136"
                 transform="matrix(-0.766,-0.64279,0.64279,-0.766,206.90852,28.84529)"><g
                   id="g138"><path
                     d="M -5.08694,3.13824 0.34868,0 -5.08694,-3.13824 Z"
                     style="fill:#000000;fill-opacity:1;fill-rule:nonzero;stroke:#000000;stroke-width:0.79701;stroke-linecap:butt;stroke-linejoin:miter;stroke-miterlimit:10;stroke-dasharray:none;stroke-opacity:1"
                     id="path140" /></g></g></g><g
               id="g142"><g
                 id="g144"
                 transform="translate(184.538,31.028)"><g
                   id="g146"><g
                     id="g148"
                     transform="translate(-230.952,-77.058)"><text
                       transform="matrix(1,0,0,-1,230.952,77.058)"
                       style="font-variant:normal;font-weight:normal;font-size:11.9552px;font-family:Arial;-inkscape-font-specification:Arial;writing-mode:lr-tb;fill:#000000;fill-opacity:1;fill-rule:nonzero;stroke:none"
                       id="text152"><tspan
                         x="0 5.2285156 11.20482"
                         y="0"
                         sodipodi:role="line"
                         id="tspan150">(c)</tspan></text><g
                       id="g154"
                       transform="translate(230.952,77.058)" /></g></g><g
                   id="g156"
                   transform="translate(-184.538,-31.028)" /></g></g><g
               id="g158"><g
                 id="g160"
                 transform="translate(203.497,-40.967)"><g
                   id="g162"><g
                     id="g164"
                     transform="translate(-249.911,-5.063)"><text
                       transform="matrix(1,0,0,-1,249.911,5.063)"
                       style="font-variant:normal;font-weight:normal;font-size:11.9552px;font-family:Arial;-inkscape-font-specification:Arial;writing-mode:lr-tb;fill:#000000;fill-opacity:1;fill-rule:nonzero;stroke:none"
                       id="text168"><tspan
                         x="0 8.7730083 12.023426 18.525463 24.376934 28.993298 33.544842 40.046879"
                         y="0"
                         sodipodi:role="line"
                         id="tspan166">Hidastuu</tspan></text><g
                       id="g170"
                       transform="translate(249.911,5.063)" /></g></g><g
                   id="g172"
                   transform="translate(-203.497,40.967)" /></g></g></g><g
             id="g174"><g
               id="g176"><path
                 d="m 368.50865,0 c 0,15.6557 -12.69108,28.3468 -28.3468,28.3468 -15.65572,0 -28.34682,-12.6911 -28.34682,-28.3468 0,-15.6557 12.6911,-28.3468 28.34682,-28.3468 15.65572,0 28.3468,12.6911 28.3468,28.3468 z"
                 style="fill:#ffffff;fill-opacity:1;fill-rule:nonzero;stroke:#000000;stroke-width:0.79701;stroke-linecap:butt;stroke-linejoin:miter;stroke-miterlimit:10;stroke-dasharray:none;stroke-opacity:1"
                 id="path178" /></g><path
               d="m 342.9967,0 c 0,1.56564 -1.2692,2.83484 -2.83485,2.83484 -1.56566,0 -2.83485,-1.2692 -2.83485,-2.83484 0,-1.56564 1.26919,-2.83484 2.83485,-2.83484 1.56565,0 2.83485,1.2692 2.83485,2.83484 z"
               style="fill:#000000;fill-opacity:1;fill-rule:nonzero;stroke:#000000;stroke-width:0.3985;stroke-linecap:butt;stroke-linejoin:miter;stroke-miterlimit:10;stroke-dasharray:none;stroke-opacity:1"
               id="path180" /><g
               id="g182"><path
                 d="m 327.40588,34.01608 c 11.41845,4.15598 24.19159,1.90331 32.622,-5.1708"
                 style="fill:none;stroke:#000000;stroke-width:0.79701;stroke-linecap:butt;stroke-linejoin:miter;stroke-miterlimit:10;stroke-dasharray:none;stroke-opacity:1"
                 id="path184" /><g
                 id="g186"
                 transform="matrix(0.766,-0.64279,0.64279,0.766,360.02788,28.84529)"><g
                   id="g188"><path
                     d="M -5.08694,3.13824 0.34868,0 -5.08694,-3.13824 Z"
                     style="fill:#000000;fill-opacity:1;fill-rule:nonzero;stroke:#000000;stroke-width:0.79701;stroke-linecap:butt;stroke-linejoin:miter;stroke-miterlimit:10;stroke-dasharray:none;stroke-opacity:1"
                     id="path190" /></g></g></g><g
               id="g192"><g
                 id="g194"
                 transform="translate(297.177,31.028)"><g
                   id="g196"><g
                     id="g198"
                     transform="translate(-343.591,-77.058)"><text
                       transform="matrix(1,0,0,-1,343.591,77.058)"
                       style="font-variant:normal;font-weight:normal;font-size:11.9552px;font-family:Arial;-inkscape-font-specification:Arial;writing-mode:lr-tb;fill:#000000;fill-opacity:1;fill-rule:nonzero;stroke:none"
                       id="text202"><tspan
                         x="0 5.2285156 12.699196"
                         y="0"
                         sodipodi:role="line"
                         id="tspan200">(d)</tspan></text><g
                       id="g204"
                       transform="translate(343.591,77.058)" /></g></g><g
                   id="g206"
                   transform="translate(-297.177,-31.028)" /></g></g><g
               id="g208"><g
                 id="g210"
                 transform="translate(314.802,-39.805)"><g
                   id="g212"><g
                     id="g214"
                     transform="translate(-361.216,-6.225)"><text
                       transform="matrix(1,0,0,-1,361.216,6.225)"
                       style="font-variant:normal;font-weight:normal;font-size:11.9552px;font-family:Arial;-inkscape-font-specification:Arial;writing-mode:lr-tb;fill:#000000;fill-opacity:1;fill-rule:nonzero;stroke:none"
                       id="text218"><tspan
                         x="0 8.7730083 14.62448 21.449306 26.650217 33.152252 37.703796 44.205833"
                         y="0"
                         sodipodi:role="line"
                         id="tspan216">Nopeutuu</tspan></text><g
                       id="g220"
                       transform="translate(361.216,6.225)" /></g></g><g
                   id="g222"
                   transform="translate(-314.802,39.805)" /></g></g></g></g></g></g></g></svg>
